<svg xmlns="http://www.w3.org/2000/svg" width="600" height="400" viewBox="0 0 600 400">
  <style>
    .blue-bg { fill: #4299e1; }
    .dark-blue { fill: #2c5282; }
    .light-bg { fill: #f7fafc; }
    .accent { fill: #f6ad55; }
    .white { fill: #ffffff; }
    .dark-text { fill: #2d3748; }
  </style>
  
  <!-- Background -->
  <rect width="600" height="400" class="light-bg" />
  
  <!-- Document stack -->
  <g transform="translate(100, 100)">
    <!-- Documents -->
    <rect x="0" y="20" width="250" height="180" rx="5" class="white" stroke="#e2e8f0" stroke-width="2" />
    <rect x="10" y="10" width="250" height="180" rx="5" class="white" stroke="#e2e8f0" stroke-width="2" />
    <rect x="20" y="0" width="250" height="180" rx="5" class="white" stroke="#e2e8f0" stroke-width="2" />
    
    <!-- Document content lines -->
    <rect x="50" y="30" width="190" height="4" rx="2" class="blue-bg" opacity="0.5" />
    <rect x="50" y="45" width="150" height="4" rx="2" class="blue-bg" opacity="0.5" />
    <rect x="50" y="60" width="170" height="4" rx="2" class="blue-bg" opacity="0.5" />
    
    <rect x="50" y="80" width="190" height="4" rx="2" class="blue-bg" opacity="0.3" />
    <rect x="50" y="95" width="170" height="4" rx="2" class="blue-bg" opacity="0.3" />
    <rect x="50" y="110" width="150" height="4" rx="2" class="blue-bg" opacity="0.3" />
    
    <rect x="50" y="130" width="190" height="4" rx="2" class="blue-bg" opacity="0.2" />
    <rect x="50" y="145" width="140" height="4" rx="2" class="blue-bg" opacity="0.2" />
  </g>
  
  <!-- AI Circle -->
  <circle cx="400" cy="190" r="80" class="dark-blue" />
  <circle cx="400" cy="190" r="70" class="white" />
  <circle cx="400" cy="190" r="60" class="blue-bg" opacity="0.8" />
  
  <!-- AI Brain/Circuit Pattern -->
  <g transform="translate(400, 190) scale(0.8)">
    <circle cx="0" cy="0" r="30" fill="none" stroke="white" stroke-width="3" />
    <circle cx="-15" cy="-15" r="5" class="white" />
    <circle cx="15" cy="-15" r="5" class="white" />
    <circle cx="-15" cy="15" r="5" class="white" />
    <circle cx="15" cy="15" r="5" class="white" />
    <circle cx="0" cy="-25" r="5" class="white" />
    <circle cx="0" cy="25" r="5" class="white" />
    <circle cx="-25" cy="0" r="5" class="white" />
    <circle cx="25" cy="0" r="5" class="white" />
    
    <line x1="-15" y1="-15" x2="0" y2="0" stroke="white" stroke-width="2" />
    <line x1="15" y1="-15" x2="0" y2="0" stroke="white" stroke-width="2" />
    <line x1="-15" y1="15" x2="0" y2="0" stroke="white" stroke-width="2" />
    <line x1="15" y1="15" x2="0" y2="0" stroke="white" stroke-width="2" />
    <line x1="0" y1="-25" x2="0" y2="-15" stroke="white" stroke-width="2" />
    <line x1="0" y1="25" x2="0" y2="15" stroke="white" stroke-width="2" />
    <line x1="-25" y1="0" x2="-15" y2="0" stroke="white" stroke-width="2" />
    <line x1="25" y1="0" x2="15" y2="0" stroke="white" stroke-width="2" />
  </g>
  
  <!-- Magnifying glass on document -->
  <circle cx="180" cy="200" r="40" fill="none" stroke="#2c5282" stroke-width="6" opacity="0.8" />
  <line x1="210" y1="230" x2="240" y2="260" stroke="#2c5282" stroke-width="8" opacity="0.8" />
  
  <!-- Checkmark -->
  <g transform="translate(480, 300) scale(1.5)">
    <circle cx="0" cy="0" r="25" class="accent" />
    <path d="M-10,0 L-3,10 L10,-10" fill="none" stroke="white" stroke-width="4" stroke-linecap="round" stroke-linejoin="round" />
  </g>
  
  <!-- Shield -->
  <g transform="translate(320, 320) scale(0.8)">
    <path d="M0,-40 L30,-20 L30,20 L0,40 L-30,20 L-30,-20 Z" class="dark-blue" opacity="0.6" />
    <path d="M0,-30 L20,-15 L20,15 L0,30 L-20,15 L-20,-15 Z" class="white" />
    <path d="M0,-20 L10,-10 L10,10 L0,20 L-10,10 L-10,-10 Z" class="blue-bg" />
  </g>
</svg>
